<svg xmlns="http://www.w3.org/2000/svg" width="110" height="110" viewBox="0 0 110 110"><defs><style>.a{fill:#0e0b53;}</style></defs><path class="a" d="M55,0C24.612,0,0,24.987,0,55.839A55.7,55.7,0,0,0,41.664,110a7.644,7.644,0,0,1-.412-2.652V97.853H34.376c-3.712,0-7.152-1.673-8.664-4.747-1.788-3.35-2.064-8.516-6.6-11.729-1.376-1.117-.276-2.234,1.236-2.1,2.888.836,5.224,2.794,7.424,5.722s3.164,3.631,7.288,3.631a54.626,54.626,0,0,0,7.7-.561c1.512-3.911,4.124-7.4,7.288-9.072C31.624,76.768,22.824,67.553,22.824,54.988c0-5.446,2.336-10.612,6.188-15.079-1.236-4.329-2.888-13.263.552-16.752A19.422,19.422,0,0,1,44,30a41.766,41.766,0,0,1,13.336-2.234A41.112,41.112,0,0,1,70.671,30a19.415,19.415,0,0,1,14.436-6.838c3.3,3.35,1.788,12.422.412,16.752a22.791,22.791,0,0,1,6.052,15.079c0,12.565-8.664,21.779-26.948,23.733,5.088,2.652,8.664,10.189,8.664,15.773V107.21c0,.418-.136.836-.136,1.255A55.568,55.568,0,0,0,110,55.839C110,24.987,85.388,0,55,0Z"/></svg>