<svg xmlns="http://www.w3.org/2000/svg" width="110" height="107" viewBox="0 0 110 107"><defs><style>.a{fill:#131056;}</style></defs><path class="a" d="M4.583,135.319H105.417v97.855H4.583ZM0,237.746H110v-107H0Zm72.05-68.864c0-.366.137-.549.55-.549h7.2c.366,0,.55.137.55.549V204.96c0,.366-.092.549-.55.549h-7.1c-.458,0-.6-.229-.6-.594V168.882Zm-.5-10.38a4.675,4.675,0,0,1,9.35,0c0,3.018-1.971,4.664-4.767,4.664A4.3,4.3,0,0,1,71.546,158.5ZM50.921,183.926c-1.283-5.076-4.308-16.141-5.454-21.492h-.092c-.963,5.35-3.392,14.4-5.317,21.492Zm-12.742,7.408-3.621,13.718c-.092.366-.229.457-.687.457H27.133c-.458,0-.55-.137-.458-.686l13.017-45.452a14.779,14.779,0,0,0,.458-3.8c0-.32.137-.457.367-.457h9.625c.321,0,.458.091.55.457l14.575,49.339c.092.366,0,.594-.367.594H57.292c-.367,0-.6-.091-.687-.411l-3.758-13.764H38.179Z" transform="translate(0 -130.746)"/></svg>