<svg xmlns="http://www.w3.org/2000/svg" width="110" height="110" viewBox="0 0 110 110"><defs><style>.a{fill:#131056;}.b{fill:#fff;}</style></defs><path class="a" d="M132.341,136.6H30.859a4.277,4.277,0,0,1-4.259-4.26V30.86a4.277,4.277,0,0,1,4.259-4.26H132.341a4.277,4.277,0,0,1,4.259,4.26v101.5A4.272,4.272,0,0,1,132.341,136.6Z" transform="translate(-26.6 -26.6)"/><path class="b" d="M129.6,103.8l57.56-18.268s4.087-2.142,3.1,1.822l.148,17.6s.714,2.585-2.831,3.225l-23.389,7.312Z" transform="translate(-104.242 -70.587)"/><path class="b" d="M124.319,161.5s-2.265.542-1.6,4.407L122.6,182.87s-.2,2.142,3.865,3L183.5,204.24s1.92.763,1.7-1.6l.025-18.908s.542-1.945-3-3.225l-23.315-7.312Z" transform="translate(-98.961 -128.276)"/><path class="b" d="M149.374,290.5,125.1,297.91s-2.93.1-2.585,5.589-.025,16.544-.025,16.544.246,2.043,3.053.862l57.56-18.366s2.043-.517.32-1.083C181.7,300.914,149.374,290.5,149.374,290.5Z" transform="translate(-98.879 -225.505)"/></svg>