<svg xmlns="http://www.w3.org/2000/svg" width="110" height="109.999" viewBox="0 0 110 109.999"><defs><style>.a{fill:#131056;}</style></defs><path class="a" d="M63.4,118.4a54.578,54.578,0,0,1-55-55c.23-30.707,23.375-55,55-55s55,24.75,55,55A55.013,55.013,0,0,1,63.4,118.4Zm16.27-8.48L64.088,67.982,49.42,110.836c10.772,2.522,18.1,3.208,30.25-.917Zm-38.04-2.29L18.256,43.692c-3.21,6.875-3.9,12.6-4.355,19.707A49.65,49.65,0,0,0,41.63,107.629ZM112.672,63.4c.228-12.145-5.27-21.77-5.73-23.145a49.387,49.387,0,0,1-2.52,19.48L88.38,105.8c20.167-12.147,24.06-30.252,24.52-42.4h-.228ZM61.8,61.337,54.005,40.025l-5.73-.458c-2.29-1.6-.917-4.125.687-4.125a168.638,168.638,0,0,0,26.355,0,2.066,2.066,0,1,1,.228,4.125l-5.5.458L87.918,92.731,96.4,63.857c.46-12.6-2.98-13.978-7.562-23.145-3.667-7.1.23-13.98,7.335-14.207C90.436,21,78.751,14.13,63.4,13.9A49.154,49.154,0,0,0,22.146,36.13l16.96-.458c2.062.917,1.145,3.9,0,4.125l-5.958.458L51.023,93.879,61.8,61.337Z" transform="translate(-8.399 -8.4)"/></svg>