<svg xmlns="http://www.w3.org/2000/svg" width="110" height="108" viewBox="0 0 110 108"><defs><style>.a{fill:#131056;}</style></defs><path class="a" d="M0,0V108H110V0ZM4.583,4.615H105.417v98.769H4.583Z"/><path class="a" d="M104.374,75.117a6.293,6.293,0,0,0-2.658-.458c-5.775,0-9.625,4.446-9.625,11.825,0,8.433,3.942,11.825,9.075,11.825a8.647,8.647,0,0,0,3.162-.5V75.117ZM83.841,86.85c0-10.679,6.875-19.021,18.15-19.021a20.323,20.323,0,0,1,2.383.092V56a.459.459,0,0,1,.458-.458h7.379c.367,0,.458.138.458.367V97.8a32.646,32.646,0,0,0,.229,4.492c0,.321,0,.367-.275.5a27.3,27.3,0,0,1-11.733,2.658C90.945,105.458,83.841,99.317,83.841,86.85ZM68.212,79.425l12.833,24.887c.229.367.092.733-.275.733H72.8a.9.9,0,0,1-.962-.6q-4.4-9.075-8.983-18.838h-.092c-2.75,6.142-5.775,12.833-8.708,18.883a.88.88,0,0,1-.825.5H45.616c-.458,0-.5-.367-.275-.642L57.9,80.2,45.753,56.188a.406.406,0,0,1,.321-.687h7.883c.458,0,.688.092.825.5,2.887,6.1,5.821,12.1,8.571,18.242h.092C66.1,68.2,69.037,62.1,71.833,56.1c.229-.367.367-.6.825-.6h7.379c.367,0,.5.275.275.688Z" transform="translate(-24.487 -29.729)"/></svg>